<?xml version="1.0" standalone="no"?>
<!DOCTYPE svg PUBLIC "-//W3C//DTD SVG 20010904//EN"
 "http://www.w3.org/TR/2001/REC-SVG-20010904/DTD/svg10.dtd">
<svg version="1.0" xmlns="http://www.w3.org/2000/svg"
 width="512.000000pt" height="512.000000pt" viewBox="0 0 512.000000 512.000000"
 preserveAspectRatio="xMidYMid meet">

<g transform="translate(0.000000,512.000000) scale(0.100000,-0.100000)"
fill="#000000" stroke="none">
<path d="M2300 5109 c-278 -39 -522 -100 -675 -168 -22 -10 -51 -22 -65 -26
-40 -12 -239 -115 -313 -162 -37 -24 -69 -43 -72 -43 -8 0 -142 -98 -225 -164
-109 -87 -314 -297 -400 -409 -92 -119 -205 -300 -268 -427 -66 -132 -149
-340 -172 -428 -5 -20 -14 -55 -19 -77 -49 -185 -84 -450 -84 -640 0 -162 40
-488 73 -600 5 -16 14 -50 21 -75 111 -417 334 -802 649 -1120 214 -217 409
-358 705 -508 90 -46 259 -110 430 -161 222 -67 696 -120 830 -92 28 5 97 15
155 21 197 20 456 83 605 145 17 7 59 25 95 40 426 176 841 515 1097 895 95
141 122 185 182 305 129 256 213 530 254 830 14 106 14 537 -1 650 -50 381
-192 758 -407 1085 -198 299 -535 621 -817 779 -21 12 -55 31 -75 42 -270 154
-572 251 -928 301 -95 13 -494 18 -575 7z m358 -1679 c263 -28 548 -113 812
-243 91 -44 170 -85 175 -89 6 -5 48 -33 95 -63 101 -65 170 -115 290 -212 49
-40 94 -73 100 -73 10 0 36 26 121 120 46 52 150 186 198 257 34 51 50 64 79
72 61 15 122 20 128 10 20 -33 -298 -430 -400 -499 -39 -27 -47 -50 -17 -50
25 0 182 161 306 315 17 21 38 46 47 56 9 10 24 31 32 48 30 58 38 48 31 -40
-10 -151 -22 -185 -96 -284 -37 -49 -95 -118 -128 -152 -65 -66 -73 -89 -40
-119 12 -10 66 -75 120 -144 55 -69 103 -130 108 -136 18 -22 30 -84 37 -184
3 -58 10 -124 14 -148 4 -25 4 -45 -2 -48 -5 -4 -43 -3 -85 1 -86 8 -76 0
-179 145 -148 210 -254 330 -290 330 -12 0 -24 -4 -26 -8 -1 -5 -32 -31 -68
-59 -198 -155 -552 -344 -771 -413 -171 -53 -213 -65 -274 -80 -185 -43 -542
-53 -760 -21 -271 40 -358 59 -523 112 -192 61 -551 223 -668 301 -27 18 -82
53 -123 77 -88 54 -313 220 -395 294 -17 15 -50 42 -74 59 -60 45 -53 62 29
68 36 3 75 12 85 20 10 8 45 35 76 60 31 25 76 59 100 76 24 17 77 56 118 86
171 126 513 313 725 396 209 82 503 154 670 165 120 8 334 6 423 -3z m-224
-2222 c-51 -58 -68 -64 -43 -15 19 37 41 57 62 57 16 0 13 -7 -19 -42z m481
32 c3 -5 -1 -10 -9 -10 -9 0 -16 5 -16 10 0 6 4 10 9 10 6 0 13 -4 16 -10z
m344 -21 c-12 -24 -29 -25 -29 -1 0 24 8 32 26 25 10 -4 11 -10 3 -24z m-1119
10 c0 -6 -6 -16 -12 -23 -7 -8 -33 -36 -56 -65 -24 -28 -50 -51 -58 -51 -21 0
-17 14 12 41 14 13 39 43 56 67 27 39 58 56 58 31z m1357 5 c-3 -3 -12 -4 -19
-1 -8 3 -5 6 6 6 11 1 17 -2 13 -5z m-267 -53 c0 -14 -49 -98 -65 -111 -8 -7
-23 -9 -32 -5 -16 6 -15 9 7 28 14 12 37 39 50 59 24 36 40 48 40 29z m-552
-113 c-2 -15 -11 -24 -25 -26 -27 -4 -29 5 -6 30 22 24 35 23 31 -4z m982 -61
c0 -14 -21 -39 -66 -76 -16 -13 -44 -37 -62 -53 -36 -31 -69 -39 -54 -12 10
18 163 153 175 154 4 0 7 -6 7 -13z m-1725 -7 c6 -10 -18 -47 -88 -132 -38
-47 -57 -59 -57 -38 0 6 19 36 43 67 23 30 51 68 62 84 21 31 30 35 40 19z
m730 -134 c-15 -36 -34 -52 -54 -44 -5 1 7 22 27 45 20 23 38 41 39 39 2 -2
-4 -20 -12 -40z m-1211 -5 c8 -12 -31 -44 -43 -36 -8 4 -8 12 -1 26 11 20 35
25 44 10z"/>
<path d="M2105 3142 c-11 -5 -45 -12 -75 -16 -54 -7 -226 -56 -285 -82 -16 -7
-61 -25 -99 -39 -100 -39 -237 -107 -348 -172 -210 -126 -244 -148 -280 -177
-21 -17 -38 -38 -38 -46 0 -8 28 -34 63 -57 34 -23 115 -78 180 -122 65 -44
129 -86 142 -93 14 -7 75 -41 136 -75 61 -35 113 -63 115 -63 2 0 44 -18 92
-41 125 -58 390 -143 507 -163 55 -9 125 -21 156 -26 85 -15 419 -12 524 5
138 22 306 62 376 88 214 82 265 104 364 157 61 33 131 71 156 84 25 13 51 32
58 40 8 9 19 16 27 16 7 0 19 6 26 13 26 24 97 77 103 77 12 0 75 55 75 66 0
11 -72 68 -123 96 -16 9 -35 22 -40 27 -19 19 -38 12 -36 -11 4 -40 -1 -78 -9
-78 -4 0 -42 28 -84 63 -42 34 -105 80 -140 101 -35 21 -93 59 -130 82 -62 41
-174 100 -258 137 -175 77 -474 177 -590 197 -75 13 -540 22 -565 12z m1765
-659 c0 -5 -6 -28 -14 -53 -11 -37 -23 -52 -72 -87 -32 -23 -63 -42 -68 -42
-5 -1 -29 -10 -53 -22 -35 -17 -46 -19 -58 -9 -8 7 -23 9 -32 5 -17 -6 -17 -7
1 -21 19 -14 19 -14 -1 -14 -27 0 -53 10 -53 20 0 5 25 23 55 40 30 17 61 37
68 44 6 6 51 37 99 69 48 32 90 62 93 67 7 12 35 13 35 3z m-366 -268 c-21
-16 -44 -20 -44 -7 0 15 13 22 39 22 24 0 24 -1 5 -15z"/>
</g>
</svg>
